<?xml version="1.0" encoding="iso-8859-1"?>
<!-- Generator: Adobe Illustrator 19.0.0, SVG Export Plug-In . SVG Version: 6.00 Build 0)  -->
<svg version="1.1" id="Capa_1" xmlns="http://www.w3.org/2000/svg" xmlns:xlink="http://www.w3.org/1999/xlink" x="17px" y="4px"
	 viewBox="0 0 512 512" style="enable-background:new 0 0 512 512;" xml:space="preserve">
<g>
	<g>
		<path d="M266.667,21.333h-256C4.779,21.333,0,26.112,0,32v256c0,5.888,4.779,10.667,10.667,10.667h256
			c5.888,0,10.667-4.779,10.667-10.667V32C277.333,26.112,272.555,21.333,266.667,21.333z M256,277.333H21.333V42.667H256V277.333z"
			/>
	</g>
</g>
<g>
	<g>
		<path d="M233.536,240.555l-42.667-85.333c-1.536-3.072-4.437-5.205-7.829-5.76c-3.435-0.576-6.827,0.576-9.259,2.987
			l-32.192,32.192l-36.053-72.085c-1.92-3.861-5.867-6.208-10.304-5.867c-4.288,0.32-7.979,3.179-9.344,7.253l-42.667,128
			c-1.109,3.264-0.555,6.848,1.451,9.621c2.005,2.795,5.227,4.437,8.661,4.437H224c3.691,0,7.125-1.941,9.067-5.077
			S235.2,243.861,233.536,240.555z M68.139,234.667l29.845-89.515l31.147,62.293c1.536,3.072,4.437,5.205,7.829,5.76
			c3.392,0.555,6.827-0.576,9.259-2.987l32.192-32.213l28.331,56.661H68.139z"/>
	</g>
</g>
<g>
	<g>
		<path d="M192,64c-23.531,0-42.667,19.136-42.667,42.667c0,23.531,19.136,42.667,42.667,42.667s42.667-19.136,42.667-42.667
			C234.667,83.136,215.531,64,192,64z M192,128c-11.755,0-21.333-9.579-21.333-21.333c0-11.755,9.579-21.333,21.333-21.333
			s21.333,9.579,21.333,21.333C213.333,118.421,203.755,128,192,128z"/>
	</g>
</g>
<g>
	<g>
		<path d="M501.333,277.333H330.667c-5.888,0-10.667,4.779-10.667,10.667s4.779,10.667,10.667,10.667h170.667
			c5.888,0,10.667-4.779,10.667-10.667S507.221,277.333,501.333,277.333z"/>
	</g>
</g>
<g>
	<g>
		<path d="M501.333,341.333H10.667C4.779,341.333,0,346.112,0,352c0,5.888,4.779,10.667,10.667,10.667h490.667
			c5.888,0,10.667-4.779,10.667-10.667C512,346.112,507.221,341.333,501.333,341.333z"/>
	</g>
</g>
<g>
	<g>
		<path d="M501.333,405.333H10.667C4.779,405.333,0,410.112,0,416c0,5.888,4.779,10.667,10.667,10.667h490.667
			c5.888,0,10.667-4.779,10.667-10.667C512,410.112,507.221,405.333,501.333,405.333z"/>
	</g>
</g>
<g>
	<g>
		<path d="M501.333,469.333H10.667C4.779,469.333,0,474.112,0,480c0,5.888,4.779,10.667,10.667,10.667h490.667
			c5.888,0,10.667-4.779,10.667-10.667C512,474.112,507.221,469.333,501.333,469.333z"/>
	</g>
</g>
<g>
</g>
<g>
</g>
<g>
</g>
<g>
</g>
<g>
</g>
<g>
</g>
<g>
</g>
<g>
</g>
<g>
</g>
<g>
</g>
<g>
</g>
<g>
</g>
<g>
</g>
<g>
</g>
<g>
</g>
</svg>
